<mxfile host="app.diagrams.net" modified="2023-05-21T16:56:36.452Z" agent="Mozilla/5.0 (Macintosh; Intel Mac OS X 10_15_7) AppleWebKit/537.36 (KHTML, like Gecko) Chrome/113.0.0.0 Safari/537.36" etag="2RUCKAd91tkSfk2jjPs4" version="21.3.2" type="device">
  <diagram name="Page-1" id="81-AUO7mxyj5QsYoIq4W">
    <mxGraphModel dx="1347" dy="718" grid="1" gridSize="10" guides="1" tooltips="1" connect="1" arrows="1" fold="1" page="1" pageScale="1" pageWidth="827" pageHeight="1169" math="0" shadow="0">
      <root>
        <mxCell id="0" />
        <mxCell id="1" parent="0" />
        <mxCell id="h0I2ogbrQphrn5PemlHU-1" value="&lt;font style=&quot;font-size: 42px;&quot;&gt;€&lt;/font&gt;" style="ellipse;whiteSpace=wrap;html=1;fillColor=#FFA3A6;" vertex="1" parent="1">
          <mxGeometry x="170" y="460" width="100" height="100" as="geometry" />
        </mxCell>
        <mxCell id="h0I2ogbrQphrn5PemlHU-3" value="&lt;font style=&quot;font-size: 42px;&quot;&gt;£&lt;/font&gt;" style="ellipse;whiteSpace=wrap;html=1;fillColor=#A6E7FF;" vertex="1" parent="1">
          <mxGeometry x="490" y="460" width="100" height="100" as="geometry" />
        </mxCell>
        <mxCell id="h0I2ogbrQphrn5PemlHU-2" value="&lt;font style=&quot;font-size: 42px;&quot;&gt;$&lt;/font&gt;" style="ellipse;whiteSpace=wrap;html=1;gradientColor=none;fillColor=#B3FFBD;" vertex="1" parent="1">
          <mxGeometry x="330" y="170" width="100" height="100" as="geometry" />
        </mxCell>
        <mxCell id="h0I2ogbrQphrn5PemlHU-4" value="" style="endArrow=classic;html=1;rounded=0;strokeWidth=6;" edge="1" parent="1">
          <mxGeometry width="50" height="50" relative="1" as="geometry">
            <mxPoint x="430" y="270" as="sourcePoint" />
            <mxPoint x="530" y="450" as="targetPoint" />
          </mxGeometry>
        </mxCell>
        <mxCell id="h0I2ogbrQphrn5PemlHU-5" value="" style="endArrow=classic;html=1;rounded=0;strokeWidth=6;" edge="1" parent="1">
          <mxGeometry width="50" height="50" relative="1" as="geometry">
            <mxPoint x="480" y="509" as="sourcePoint" />
            <mxPoint x="280" y="509.5" as="targetPoint" />
          </mxGeometry>
        </mxCell>
        <mxCell id="h0I2ogbrQphrn5PemlHU-6" value="" style="endArrow=classic;html=1;rounded=0;strokeWidth=6;" edge="1" parent="1">
          <mxGeometry width="50" height="50" relative="1" as="geometry">
            <mxPoint x="240" y="450" as="sourcePoint" />
            <mxPoint x="340" y="270" as="targetPoint" />
          </mxGeometry>
        </mxCell>
        <mxCell id="h0I2ogbrQphrn5PemlHU-7" value="&lt;font style=&quot;font-size: 16px;&quot;&gt;Swap $ into £ at £1 = $1.20&lt;/font&gt;" style="text;html=1;strokeColor=none;fillColor=none;align=center;verticalAlign=middle;whiteSpace=wrap;rounded=0;fontSize=20;rotation=60;" vertex="1" parent="1">
          <mxGeometry x="377" y="336" width="260" height="10" as="geometry" />
        </mxCell>
        <mxCell id="h0I2ogbrQphrn5PemlHU-8" value="&lt;font style=&quot;font-size: 16px;&quot;&gt;Swap £ into € at €1 = £0.75&lt;/font&gt;" style="text;html=1;strokeColor=none;fillColor=none;align=center;verticalAlign=middle;whiteSpace=wrap;rounded=0;fontSize=20;rotation=0;" vertex="1" parent="1">
          <mxGeometry x="254" y="530" width="260" height="10" as="geometry" />
        </mxCell>
        <mxCell id="h0I2ogbrQphrn5PemlHU-9" value="&lt;font style=&quot;font-size: 16px;&quot;&gt;Swap € into $ at $1 = €0.85&lt;/font&gt;" style="text;html=1;strokeColor=none;fillColor=none;align=center;verticalAlign=middle;whiteSpace=wrap;rounded=0;fontSize=20;rotation=-60;" vertex="1" parent="1">
          <mxGeometry x="120" y="330" width="280" height="30" as="geometry" />
        </mxCell>
        <mxCell id="h0I2ogbrQphrn5PemlHU-12" value="Start with $100" style="text;html=1;strokeColor=none;fillColor=none;align=center;verticalAlign=middle;whiteSpace=wrap;rounded=0;fontSize=16;" vertex="1" parent="1">
          <mxGeometry x="420" y="170" width="140" height="30" as="geometry" />
        </mxCell>
        <mxCell id="h0I2ogbrQphrn5PemlHU-13" value="After Exchanging $:£83.33" style="text;html=1;strokeColor=none;fillColor=none;align=center;verticalAlign=middle;whiteSpace=wrap;rounded=0;fontSize=16;" vertex="1" parent="1">
          <mxGeometry x="600" y="500" width="170" height="30" as="geometry" />
        </mxCell>
        <mxCell id="h0I2ogbrQphrn5PemlHU-14" value="After Exchanging £:€111.11" style="text;html=1;strokeColor=none;fillColor=none;align=center;verticalAlign=middle;whiteSpace=wrap;rounded=0;fontSize=16;" vertex="1" parent="1">
          <mxGeometry x="10" y="500" width="150" height="30" as="geometry" />
        </mxCell>
        <mxCell id="h0I2ogbrQphrn5PemlHU-15" value="End with $130.72" style="text;html=1;strokeColor=none;fillColor=none;align=center;verticalAlign=middle;whiteSpace=wrap;rounded=0;fontSize=16;fontColor=#000000;" vertex="1" parent="1">
          <mxGeometry x="180" y="170" width="140" height="30" as="geometry" />
        </mxCell>
      </root>
    </mxGraphModel>
  </diagram>
</mxfile>
